<?xml version="1.0" standalone="no"?>
<!DOCTYPE svg PUBLIC "-//W3C//DTD SVG 20010904//EN"
 "http://www.w3.org/TR/2001/REC-SVG-20010904/DTD/svg10.dtd">
<svg version="1.0" xmlns="http://www.w3.org/2000/svg"
 width="225.000000pt" height="225.000000pt" viewBox="0 0 225.000000 225.000000"
 preserveAspectRatio="xMidYMid meet">
<metadata>
Created by potrace 1.14, written by Peter Selinger 2001-2017
</metadata>
<g transform="translate(0.000000,225.000000) scale(0.100000,-0.100000)"
fill="#000000" stroke="none">
<path d="M945 2235 c-180 -34 -360 -109 -487 -205 -95 -72 -235 -224 -290
-316 -226 -376 -220 -838 16 -1204 55 -85 187 -224 274 -289 182 -137 437
-221 667 -221 231 0 485 84 668 221 94 70 228 216 286 311 231 374 225 837
-14 1210 -69 107 -249 280 -359 345 -106 63 -218 107 -335 134 -116 27 -320
33 -426 14z m386 -421 c177 -36 279 -106 279 -191 0 -179 -508 -272 -812 -149
-34 14 -64 23 -67 21 -7 -8 19 -86 54 -161 42 -86 114 -162 192 -201 53 -25
67 -28 163 -27 115 1 160 13 160 43 0 29 -60 46 -165 46 -67 -1 -99 -5 -124
-19 -28 -15 -37 -16 -57 -5 -33 17 -30 24 19 44 55 23 187 31 259 16 161 -34
165 -136 7 -170 -110 -24 -226 -7 -316 46 -66 38 -148 134 -193 226 -45 91
-95 275 -86 312 36 144 390 231 687 169z m-448 -712 l27 -18 -26 -25 c-49 -44
-110 -136 -134 -198 -12 -34 -20 -64 -17 -67 3 -3 24 4 48 16 106 54 377 77
541 46 136 -26 244 -81 274 -137 73 -141 -143 -260 -472 -260 -239 0 -432 70
-474 171 -23 56 21 240 83 350 30 52 102 140 116 140 3 0 18 -8 34 -18z"/>
<path d="M1000 1754 c-183 -28 -280 -73 -280 -129 0 -86 273 -153 518 -127
173 18 302 72 302 127 0 29 -59 74 -125 94 -110 34 -308 51 -415 35z"/>
<path d="M975 790 c-333 -51 -341 -196 -13 -246 231 -36 524 15 569 97 41 78
-123 147 -366 154 -71 2 -157 0 -190 -5z"/>
</g>
</svg>
